HIERARCHY
ROOT Hips
{
 OFFSET 0.000000 0.000000 0.000000
 CHANNELS 6 Xposition Yposition Zposition Yrotation Xrotation Zrotation
 JOINT Chest
 {
  OFFSET 0.000000 9.585900 0.002600
  CHANNELS 3 Yrotation Xrotation Zrotation
  JOINT Chest2
  {
   OFFSET 0.000000 9.601200 -0.005300
   CHANNELS 3 Yrotation Xrotation Zrotation
   JOINT Chest3
   {
    OFFSET 0.000000 9.561800 0.000000
    CHANNELS 3 Yrotation Xrotation Zrotation
    JOINT Chest4
    {
     OFFSET 0.000000 9.552100 0.000000
     CHANNELS 3 Yrotation Xrotation Zrotation
     JOINT Neck
     {
      OFFSET 0.000000 14.453000 0.000000
      CHANNELS 3 Yrotation Xrotation Zrotation
      JOINT Head
      {
       OFFSET 0.000000 8.936500 -0.011300
       CHANNELS 3 Yrotation Xrotation Zrotation
       End Site
       {
        OFFSET 0.000000 17.073600 -0.006000
       }
      }
     }
     JOINT RightCollar
     {
      OFFSET -2.921100 9.558500 0.000000
      CHANNELS 3 Yrotation Xrotation Zrotation
      JOINT RightShoulder
      {
       OFFSET -13.519700 0.000000 0.000000
       CHANNELS 3 Yrotation Xrotation Zrotation
       JOINT RightElbow
       {
        OFFSET 0.000000 -29.696600 0.000000
        CHANNELS 3 Yrotation Xrotation Zrotation
        JOINT RightWrist
        {
         OFFSET 0.000000 -24.004700 0.000000
         CHANNELS 3 Yrotation Xrotation Zrotation
         End Site
         {
          OFFSET 0.000000 -17.728500 0.000000
         }
        }
       }
      }
     }
     JOINT LeftCollar
     {
      OFFSET 2.921100 9.558500 0.000000
      CHANNELS 3 Yrotation Xrotation Zrotation
      JOINT LeftShoulder
      {
       OFFSET 13.519700 0.000000 0.000000
       CHANNELS 3 Yrotation Xrotation Zrotation
       JOINT LeftElbow
       {
        OFFSET 0.000000 -29.696600 0.000000
        CHANNELS 3 Yrotation Xrotation Zrotation
        JOINT LeftWrist
        {
         OFFSET 0.000000 -24.004700 0.000000
         CHANNELS 3 Yrotation Xrotation Zrotation
         End Site
         {
          OFFSET 0.000000 -17.728500 0.000000
         }
        }
       }
      }
     }
    }
   }
  }
 }
 JOINT RightHip
 {
  OFFSET -7.771700 -0.012900 -0.001300
  CHANNELS 3 Yrotation Xrotation Zrotation
  JOINT RightKnee
  {
   OFFSET 0.000000 -40.869800 0.001200
   CHANNELS 3 Yrotation Xrotation Zrotation
   JOINT RightAnkle
   {
    OFFSET 0.000000 -39.717900 0.002100
    CHANNELS 3 Yrotation Xrotation Zrotation
    JOINT RightToe
    {
     OFFSET 0.000000 -4.965400 11.033500
     CHANNELS 3 Yrotation Xrotation Zrotation
     End Site
     {
      OFFSET 0.000000 -1.423100 5.872300
     }
    }
   }
  }
 }
 JOINT LeftHip
 {
  OFFSET 7.771700 -0.012900 -0.001300
  CHANNELS 3 Yrotation Xrotation Zrotation
  JOINT LeftKnee
  {
   OFFSET 0.000000 -40.869800 0.001200
   CHANNELS 3 Yrotation Xrotation Zrotation
   JOINT LeftAnkle
   {
    OFFSET 0.000000 -39.717900 0.002100
    CHANNELS 3 Yrotation Xrotation Zrotation
    JOINT LeftToe
    {
     OFFSET 0.000000 -4.965400 11.033500
     CHANNELS 3 Yrotation Xrotation Zrotation
     End Site
     {
      OFFSET 0.000000 -1.423100 5.872300
     }
    }
   }
  }
 }
}
MOTION
Frames: 16
Frame Time: 0.008333
0.000000 85.388000 0.000000 0.000000 -5.767877 0.000000 0.000000 11.653817 0.000000 0.000000 -5.885947 0.000000 0.000000 -0.000000 0.000000 0.000000 -0.000000 0.000000 0.000000 12.528835 0.000000 0.000000 0.711642 0.000000 0.000000 -0.000000 0.000000 0.000000 0.000000 -90.000000 0.000000 -2.309062 0.000000 0.000000 2.309062 0.000000 0.000000 -0.000000 0.000000 0.000000 -0.000000 90.000000 0.000000 -2.309062 0.000000 0.000000 2.309062 0.000000 0.000000 8.520406 0.000000 0.000000 1.905762 0.000000 -0.000000 -4.658285 0.000000 0.000000 -0.000000 0.000000 0.000000 8.520406 0.000000 0.000000 1.905762 0.000000 -0.000000 -4.658285 0.000000 0.000000 -0.000000 0.000000
-49.176424 62.174653 13.665048 175.663199 -51.785066 0.442167 3.813741 27.355213 0.701483 0.584793 4.666774 0.098492 0.916909 7.395696 0.177286 2.902899 21.993713 0.919255 -0.144592 16.535740 2.189564 -1.000740 -5.047396 4.098518 6.860201 6.541833 5.139142 2.020439 -12.548740 -14.423763 -37.666551 -86.384141 63.684151 27.415794 16.374486 3.982625 -10.346817 2.976084 -1.468413 -9.176556 -10.790986 19.291419 -74.838954 -70.005123 54.058812 -4.366394 6.026186 -3.468947 3.641026 -15.114640 -6.789959 4.275927 62.009619 -0.225356 1.211775 -10.230568 10.565699 0.038331 -0.163459 0.014992 0.743726 -4.095240 6.705097 122.736867 83.885233 131.397103 -4.838693 -16.256918 -10.331085 0.450028 -21.983904 -0.919284
-49.177194 62.173829 13.667613 175.660355 -51.773988 0.447585 3.805645 27.350373 0.693092 0.580079 4.662987 0.097044 0.914725 7.392292 0.176098 2.896186 21.990236 0.914826 -0.176138 16.591770 2.166739 -1.059828 -4.952177 4.070118 6.866969 6.565222 5.132434 1.998104 -12.557798 -14.403292 -37.843003 -86.383460 63.890452 27.324265 16.346062 3.989406 -10.332310 3.000659 -1.474469 -9.121174 -10.804705 19.274778 -74.697515 -70.101850 53.894586 -4.352878 6.051332 -3.429338 3.641821 -15.126760 -6.795214 4.280847 62.007832 -0.220079 1.208617 -10.231634 10.570247 0.034465 -0.160145 0.009128 0.746114 -4.109806 6.702942 122.751725 83.888678 131.411923 -4.839729 -16.250581 -10.331273 0.448937 -21.986779 -0.916677
-49.176803 62.173107 13.670372 175.659381 -51.762658 0.445349 3.801572 27.345214 0.691902 0.572441 4.667339 0.096017 0.919108 7.385333 0.176751 2.891296 21.988550 0.911419 -0.212359 16.641275 2.144928 -1.121125 -4.861082 4.047114 6.862649 6.583679 5.123407 1.978295 -12.573579 -14.385659 -38.474760 -86.322271 64.552154 27.315677 16.324926 4.015447 -10.327465 3.022299 -1.479459 -9.076578 -10.824841 19.266458 -74.547152 -70.188256 53.731017 -4.346053 6.073885 -3.408224 3.633286 -15.140110 -6.791812 4.284078 62.005008 -0.221269 1.212356 -10.229656 10.570478 0.040751 -0.159674 0.008714 0.747698 -4.123747 6.704850 122.749405 83.886173 131.412914 -4.838554 -16.249048 -10.334515 0.448640 -21.986819 -0.916487
-49.175984 62.172587 13.673044 175.657651 -51.752056 0.442495 3.801929 27.337501 0.693912 0.572161 4.666973 0.095741 0.914373 7.386110 0.174800 2.888210 21.986949 0.907982 -0.248256 16.688242 2.127229 -1.187124 -4.776386 4.028669 6.862560 6.592778 5.120878 1.954083 -12.584373 -14.372642 -39.426772 -86.211809 65.541769 27.381748 16.313511 4.047429 -10.322491 3.039114 -1.480777 -9.031287 -10.838741 19.252638 -74.443574 -70.254774 53.610454 -4.387108 6.079697 -3.403535 3.629852 -15.152217 -6.789010 4.272121 62.001892 -0.229189 1.220303 -10.226745 10.566864 0.041226 -0.160690 0.009098 0.749393 -4.134944 6.708082 122.731657 83.884796 131.397802 -4.833940 -16.253581 -10.339151 0.442012 -21.980950 -0.914635
-49.175206 62.172596 13.675190 175.655359 -51.745032 0.442265 3.802166 27.333544 0.694072 0.571905 4.666780 0.095519 0.911434 7.388466 0.173195 2.885881 21.986497 0.905190 -0.263348 16.707096 2.119182 -1.281920 -4.679136 4.011140 6.866377 6.591580 5.120533 1.926756 -12.589187 -14.363081 -39.627511 -86.194725 65.772271 27.377135 16.296205 4.093950 -10.316712 3.053411 -1.481331 -8.990091 -10.850384 19.234805 -74.402627 -70.296881 53.553073 -4.406542 6.087408 -3.404397 3.626567 -15.160452 -6.786273 4.270344 61.999569 -0.231612 1.222318 -10.223800 10.566264 0.043370 -0.163739 0.011380 0.750892 -4.142282 6.710559 122.730643 83.884714 131.396032 -4.826610 -16.255660 -10.337947 0.438407 -21.976998 -0.918256
-49.176009 62.172847 13.676833 175.657063 -51.739613 0.450502 3.804128 27.333788 0.685490 0.569587 4.666256 0.095644 0.914012 7.385927 0.170111 2.880342 21.987434 0.906768 -0.284044 16.726137 2.113525 -1.382932 -4.593969 3.999355 6.853030 6.603784 5.120585 1.920501 -12.604788 -14.356682 -39.804650 -86.179893 65.967793 27.392840 16.287312 4.122934 -10.312137 3.069048 -1.480457 -8.978486 -10.862361 19.228498 -74.380066 -70.317628 53.529983 -4.379103 6.107785 -3.401722 3.624863 -15.166508 -6.798063 4.275328 61.999910 -0.227777 1.227413 -10.224035 10.568473 0.042630 -0.165599 0.010968 0.755358 -4.147697 6.700828 122.693040 83.884986 131.360195 -4.821722 -16.257683 -10.334009 0.435884 -21.970863 -0.922693
-49.174270 62.173848 13.677726 175.655394 -51.740591 0.448486 3.811261 27.332220 0.689053 0.569278 4.668745 0.097798 0.913418 7.384548 0.168618 2.888919 21.982531 0.896231 -0.332062 16.767423 2.111060 -1.467861 -4.533730 3.997175 6.812848 6.633172 5.125133 1.946055 -12.628037 -14.346524 -40.013497 -86.175018 66.181114 27.437397 16.267432 4.206311 -10.314364 3.095691 -1.468259 -8.982396 -10.876979 19.231052 -74.377357 -70.322489 53.528459 -4.345811 6.117916 -3.402456 3.622958 -15.164003 -6.793895 4.255977 61.995593 -0.243913 1.239770 -10.223612 10.569482 0.037784 -0.165280 0.009463 0.765266 -4.145631 6.707018 122.664419 83.887661 131.340807 -4.823004 -16.261325 -10.336270 0.437108 -21.966622 -0.921781
-49.171838 62.174799 13.678289 175.652173 -51.742677 0.445289 3.818801 27.329715 0.694340 0.573335 4.664462 0.093412 0.910331 7.391053 0.173297 2.889435 21.983097 0.897174 -0.413429 16.815950 2.079874 -1.519201 -4.496015 4.000799 6.797833 6.649581 5.120103 1.943514 -12.643498 -14.339683 -40.183462 -86.188261 66.367044 27.492160 16.248036 4.287285 -10.311785 3.106383 -1.466904 -8.982285 -10.872547 19.219054 -74.429509 -70.321387 53.593596 -4.341794 6.125575 -3.422020 3.621754 -15.161876 -6.786053 4.241737 61.993407 -0.253863 1.240728 -10.219678 10.569593 0.038725 -0.167075 0.007997 0.768201 -4.140875 6.714778 122.610058 83.884639 131.289214 -4.824028 -16.266320 -10.341445 0.432190 -21.961622 -0.920038
-49.164406 62.174870 13.679465 175.662049 -51.740001 0.402824 3.833521 27.320668 0.732811 0.571700 4.666090 0.093892 0.913429 7.386537 0.171310 2.891770 21.981847 0.896177 -0.462816 16.846515 2.069978 -1.605953 -4.446786 3.997136 6.783749 6.675351 5.120276 1.955554 -12.654350 -14.336290 -40.316009 -86.227863 66.495070 27.495500 16.248729 4.325954 -10.311785 3.125375 -1.462463 -8.988043 -10.874640 19.212105 -74.662710 -70.281582 53.853730 -4.291847 6.148595 -3.463951 3.604358 -15.162853 -6.746264 4.232894 61.982847 -0.255641 1.241575 -10.211051 10.562488 0.038229 -0.168622 0.007467 0.760709 -4.141487 6.752985 122.584953 83.881938 131.267206 -4.803612 -16.273807 -10.340872 0.415493 -21.952447 -0.932091
-49.162077 62.174871 13.679872 175.665985 -51.739221 0.396214 3.838062 27.316160 0.738384 0.567283 4.667756 0.093401 0.922298 7.381030 0.168200 2.896988 21.981140 0.894656 -0.482073 16.859409 2.078516 -1.730869 -4.392901 3.990099 6.767346 6.699928 5.126296 1.964766 -12.670900 -14.332028 -40.497950 -86.321921 66.671688 27.451609 16.275673 4.377810 -10.319651 3.152883 -1.456479 -8.995960 -10.870570 19.198943 -74.867672 -70.239020 54.087529 -4.277728 6.141441 -3.495105 3.600334 -15.163967 -6.741330 4.225345 61.982445 -0.259137 1.239839 -10.208796 10.561115 0.040790 -0.169528 0.006504 0.759019 -4.141980 6.760973 122.604754 83.884959 131.289037 -4.805112 -16.278239 -10.342594 0.418188 -21.949152 -0.931459
-49.160561 62.174641 13.679937 175.671406 -51.739434 0.393218 3.839010 27.313321 0.738062 0.571230 4.666637 0.094070 0.919974 7.381960 0.166905 2.897091 21.982847 0.896857 -0.530542 16.879045 2.064038 -1.827607 -4.360857 3.987482 6.761193 6.709563 5.126234 1.980687 -12.671901 -14.333155 -40.647782 -86.359458 66.808305 27.494608 16.271200 4.435273 -10.316484 3.188282 -1.453657 -9.005019 -10.898457 19.198307 -75.033993 -70.206292 54.269679 -4.301513 6.102551 -3.545496 3.596563 -15.164442 -6.745300 4.232204 61.983970 -0.246594 1.238999 -10.209429 10.560215 0.042371 -0.169490 0.004552 0.755950 -4.141740 6.762050 122.613313 83.886725 131.299582 -4.805099 -16.281292 -10.345628 0.419080 -21.946458 -0.930434
-49.159275 62.174010 13.679887 175.670442 -51.739005 0.395845 3.840543 27.311518 0.735667 0.576953 4.660607 0.089736 0.917379 7.383412 0.168050 2.899353 21.987697 0.901631 -0.633726 16.903099 2.027836 -1.874185 -4.341889 3.991761 6.756814 6.717700 5.125576 1.998062 -12.676126 -14.336116 -40.719672 -86.367804 66.864526 27.548169 16.252442 4.487017 -10.318101 3.194033 -1.450931 -9.004941 -10.898160 19.192352 -75.125528 -70.188208 54.367813 -4.307386 6.078479 -3.569114 3.596815 -15.166198 -6.747898 4.241574 61.986261 -0.235445 1.235423 -10.211072 10.560282 0.039712 -0.168841 0.003244 0.755828 -4.142030 6.762494 122.639664 83.888961 131.325244 -4.799464 -16.284149 -10.348038 0.413210 -21.944106 -0.928821
-49.155352 62.172931 13.679996 175.676647 -51.737520 0.375727 3.846478 27.306813 0.751102 0.577755 4.654908 0.087984 0.918309 7.381270 0.167448 2.903277 21.990642 0.897619 -0.686351 16.911229 2.020835 -1.968016 -4.314490 3.990403 6.771451 6.736470 5.133090 1.996099 -12.684792 -14.334755 -40.969693 -86.410929 67.104953 27.566849 16.257770 4.537868 -10.307270 3.215971 -1.445234 -9.008008 -10.904248 19.182588 -75.238045 -70.164965 54.479168 -4.303964 6.062421 -3.587945 3.589159 -15.168487 -6.729017 4.238662 61.985119 -0.236811 1.235323 -10.209208 10.561664 0.037925 -0.170112 0.001838 0.746718 -4.145271 6.784363 122.712624 83.884631 131.393951 -4.798145 -16.291525 -10.349192 0.412820 -21.942341 -0.930302
-49.153563 62.172077 13.679509 175.676473 -51.739229 0.371852 3.850280 27.300898 0.752033 0.578078 4.655520 0.090393 0.918728 7.379003 0.167090 2.909045 21.968774 0.888781 -0.714177 16.940724 2.026487 -2.087242 -4.298166 3.985157 6.770429 6.790359 5.152376 2.005961 -12.701934 -14.339616 -41.397284 -86.467229 67.534372 27.555661 16.280812 4.577888 -10.299108 3.259033 -1.444500 -9.008070 -10.906330 19.179218 -75.410661 -70.143094 54.652696 -4.275618 6.077676 -3.610455 3.588836 -15.168177 -6.723824 4.234729 61.987444 -0.238951 1.237879 -10.210384 10.564117 0.035056 -0.170319 0.000435 0.743809 -4.144470 6.791870 122.739688 83.883681 131.420436 -4.802287 -16.291977 -10.352100 0.418507 -21.944309 -0.930105
-49.153173 62.170864 13.679036 175.678678 -51.739170 0.372356 3.849826 27.294172 0.749051 0.576778 4.659990 0.091431 0.918789 7.378120 0.166976 2.911364 21.952765 0.886180 -0.741531 16.957116 2.021849 -2.208516 -4.293264 3.978135 6.769150 6.825331 5.162028 2.016508 -12.704540 -14.349895 -41.890189 -86.486436 68.022224 27.571290 16.280164 4.609517 -10.282121 3.283007 -1.456788 -9.005459 -10.900895 19.181715 -75.549239 -70.138574 54.792537 -4.271559 6.059294 -3.639771 3.587356 -15.170407 -6.726330 4.234788 61.992129 -0.238153 1.239703 -10.213465 10.564668 0.038978 -0.169996 0.002198 0.740462 -4.146093 6.791214 122.767422 83.883699 131.448725 -4.807309 -16.291580 -10.354157 0.421363 -21.946448 -0.928017
